<?xml version="1.0" standalone="no"?>
<!DOCTYPE svg PUBLIC "-//W3C//DTD SVG 20010904//EN"
 "http://www.w3.org/TR/2001/REC-SVG-20010904/DTD/svg10.dtd">
<svg version="1.0" xmlns="http://www.w3.org/2000/svg"
 width="512.000000pt" height="512.000000pt" viewBox="0 0 512.000000 512.000000"
 preserveAspectRatio="xMidYMid meet">

<g transform="translate(0.000000,512.000000) scale(0.100000,-0.100000)"
fill="#000000" stroke="none">
<path d="M3289 4384 c-245 -44 -492 -169 -686 -348 l-43 -38 -64 59 c-170 160
-417 278 -661 319 -137 22 -375 15 -493 -16 -335 -87 -610 -310 -767 -620
-205 -408 -155 -868 142 -1290 54 -77 217 -245 848 -876 891 -893 827 -839
995 -839 167 0 109 -48 958 799 409 407 776 779 815 826 218 258 322 506 334
796 7 171 -6 271 -52 411 -65 194 -148 327 -299 479 -235 236 -521 356 -846
353 -58 0 -139 -7 -181 -15z m456 -177 c181 -51 344 -145 476 -277 264 -263
358 -632 254 -995 -34 -121 -120 -290 -201 -400 -47 -62 -301 -324 -823 -848
-416 -417 -772 -768 -791 -780 -49 -31 -151 -31 -200 0 -59 37 -1542 1530
-1602 1613 -110 152 -174 282 -220 448 -18 63 -22 106 -22 237 -1 144 2 170
27 260 81 294 275 530 542 660 168 83 245 100 445 100 146 -1 176 -4 265 -27
122 -33 227 -75 320 -130 83 -49 214 -149 270 -207 54 -57 89 -56 153 2 224
205 432 318 665 363 113 21 329 12 442 -19z"/>
</g>
</svg>
